<svg width="137" height="145" viewBox="0 0 137 145" fill="none" xmlns="http://www.w3.org/2000/svg">
<g filter="url(#filter0_d_36_7)">
<path d="M133 34.25V102.75L67.3521 137L4 102.75V45.408L29.4571 57.4758V88.7824L68.253 108.985L107.717 88.7824V48.3781L78.337 32.9656L103.794 18.7572L133 34.25ZM93.681 13.1381L69.0376 0L43.2899 14.6633L68.282 27.3197L93.681 13.1381Z" fill="#07E07B"/>
<g filter="url(#filter1_d_36_7)">
<path d="M45.302 80.0193C44.9239 79.6751 44.8412 79.351 45.0539 79.047L45.8514 77.8979C46.1115 77.533 46.5031 77.5457 47.0264 77.9361C47.7442 78.4685 48.539 78.8913 49.4105 79.2047C50.294 79.518 51.2958 79.667 52.4158 79.6518C53.0782 79.6429 53.6673 79.5566 54.183 79.393C54.6986 79.2174 55.146 78.9042 55.5254 78.4533C55.9167 78.0024 56.1074 77.4035 56.0973 76.6568C56.0914 76.2233 55.9895 75.8151 55.7916 75.4324C55.6057 75.0494 55.3125 74.7462 54.912 74.5228C54.5233 74.2872 54.1414 74.1056 53.7663 73.9782C53.149 73.7577 52.5323 73.5794 51.9161 73.4432C51.3118 73.2948 50.5138 73.0707 49.522 72.771C48.8569 72.5752 48.2267 72.2947 47.6315 71.9293C47.0362 71.552 46.5113 71.0411 46.0569 70.3968C45.6145 69.7524 45.3856 68.8581 45.3701 67.714C45.3543 66.5458 45.6959 65.5354 46.395 64.6827C47.0941 63.8301 47.9776 63.246 49.0453 62.9304C50.1129 62.6027 51.1526 62.432 52.1642 62.4183C53.6575 62.3981 54.8582 62.5565 55.7662 62.8935C56.686 63.2183 57.4803 63.611 58.149 64.0717C58.5382 64.3435 58.5967 64.6619 58.3246 65.027L57.5264 66.1219C57.2782 66.4745 56.8866 66.4678 56.3517 66.1016C55.9018 65.7946 55.2656 65.5081 54.4429 65.2422C53.6202 64.9763 52.9018 64.8475 52.2876 64.8558C51.5288 64.8661 50.8796 64.9592 50.34 65.1352C49.8003 65.3111 49.3647 65.6061 49.033 66.0202C48.7014 66.4342 48.5393 66.9182 48.5468 67.4722C48.5525 67.8937 48.6239 68.2722 48.7609 68.6076C48.8978 68.931 49.1488 69.2287 49.5138 69.5008C49.8789 69.7729 50.3877 69.9888 51.0403 70.1486C52.0555 70.3998 52.9801 70.6282 53.814 70.8337C54.66 71.0391 55.4223 71.2938 56.101 71.5977C56.9857 71.9953 57.6662 72.4378 58.1426 72.9252C58.631 73.4124 58.9694 73.9438 59.1579 74.5195C59.3462 75.083 59.4451 75.7141 59.4546 76.4126C59.4721 77.7012 59.1015 78.7963 58.3428 79.698C57.5961 80.5995 56.7552 81.2071 55.8199 81.5209C54.8844 81.8227 53.7543 81.9825 52.4296 82.0005C50.6352 82.0248 49.0902 81.7928 47.7947 81.3045C46.5111 80.8039 45.6802 80.3755 45.302 80.0193ZM61.4295 63.4852C61.2168 62.8979 61.3753 62.6006 61.9052 62.5934L63.8743 62.5668C64.2597 62.5615 64.5338 62.7927 64.6968 63.2603L68.6881 75.1311C69.0144 76.1023 69.2343 76.7739 69.3478 77.1458C69.4731 77.5054 69.5876 77.9556 69.6913 78.4962L69.7636 78.4952C69.8526 77.952 69.9488 77.499 70.0523 77.1362C70.1677 76.7612 70.3753 76.0839 70.6752 75.1042L74.3433 63.1295C74.4935 62.6577 74.7613 62.4192 75.1467 62.414L77.1158 62.3873C77.6457 62.3801 77.8122 62.673 77.6155 63.2658L71.9204 80.327C71.6775 81.0651 71.3573 81.4368 70.9599 81.4422L68.5753 81.4745C68.1779 81.4799 67.8477 81.117 67.5849 80.3858L61.4295 63.4852ZM79.7734 71.837C79.7329 68.8503 80.4473 66.4616 81.9167 64.6711C83.386 62.8805 85.5117 61.9663 88.2937 61.9286C90.606 61.8973 92.5318 62.6842 94.0713 64.2895C95.6227 65.8826 96.4224 68.4555 96.4706 72.0082C96.4779 72.5501 96.2347 72.8244 95.7409 72.8311L83.1498 73.0018C83.386 75.3233 84.0342 76.9347 85.0944 77.8357C86.1544 78.7248 87.3468 79.1603 88.6715 79.1424C90.0685 79.1234 91.1372 78.8741 91.8775 78.3943C92.6178 77.9145 93.1595 77.4434 93.5025 76.981C93.8811 76.47 94.2531 76.3686 94.6186 76.6768L95.6969 77.5836C95.9772 77.8207 95.9817 78.1519 95.7104 78.5772C95.4863 78.9295 94.8376 79.4985 93.7641 80.2839C92.7027 81.0692 91.0159 81.4775 88.7036 81.5089C85.6928 81.5497 83.4588 80.6946 82.0017 78.9437C80.5566 77.1926 79.8138 74.8237 79.7734 71.837ZM83.0457 70.6544L93.2523 70.516C93.1813 68.8306 92.7277 67.3612 91.8917 66.1078C91.0554 64.8423 89.8424 64.2203 88.2528 64.2419C86.8557 64.2608 85.6759 64.7466 84.7131 65.6992C83.7502 66.6397 83.1944 68.2914 83.0457 70.6544Z" fill="#EF3C05"/>
</g>
</g>
<defs>
<filter id="filter0_d_36_7" x="0" y="0" width="137" height="145" filterUnits="userSpaceOnUse" color-interpolation-filters="sRGB">
<feFlood flood-opacity="0" result="BackgroundImageFix"/>
<feColorMatrix in="SourceAlpha" type="matrix" values="0 0 0 0 0 0 0 0 0 0 0 0 0 0 0 0 0 0 127 0" result="hardAlpha"/>
<feOffset dy="4"/>
<feGaussianBlur stdDeviation="2"/>
<feComposite in2="hardAlpha" operator="out"/>
<feColorMatrix type="matrix" values="0 0 0 0 0 0 0 0 0 0 0 0 0 0 0 0 0 0 0.25 0"/>
<feBlend mode="normal" in2="BackgroundImageFix" result="effect1_dropShadow_36_7"/>
<feBlend mode="normal" in="SourceGraphic" in2="effect1_dropShadow_36_7" result="shape"/>
</filter>
<filter id="filter1_d_36_7" x="40.5047" y="61.8197" width="60.0932" height="28.2846" filterUnits="userSpaceOnUse" color-interpolation-filters="sRGB">
<feFlood flood-opacity="0" result="BackgroundImageFix"/>
<feColorMatrix in="SourceAlpha" type="matrix" values="0 0 0 0 0 0 0 0 0 0 0 0 0 0 0 0 0 0 127 0" result="hardAlpha"/>
<feOffset dy="4"/>
<feGaussianBlur stdDeviation="2"/>
<feComposite in2="hardAlpha" operator="out"/>
<feColorMatrix type="matrix" values="0 0 0 0 0 0 0 0 0 0 0 0 0 0 0 0 0 0 0.25 0"/>
<feBlend mode="normal" in2="BackgroundImageFix" result="effect1_dropShadow_36_7"/>
<feBlend mode="normal" in="SourceGraphic" in2="effect1_dropShadow_36_7" result="shape"/>
</filter>
</defs>
</svg>
